<svg xmlns="http://www.w3.org/2000/svg" viewBox="0 0 316.9 317">
<defs><style>.cls-1{fill:#3276d6;opacity:1;}</style></defs>
<title>logo1</title>
<g id="Layer_2" data-name="Layer 2">
<g id="icons">
<path class="cls-1" d="M53.63,68.76V249.41c-14.81,0-28.22-7.18-37.92-18.78S0,203,0,185.3V132.86C0,97.46,24,68.76,53.63,68.76Z"/>
<path class="cls-1" d="M256.45,187.63H115.06c-29.62,0-53.63-28.69-53.63-64.09H202.82C232.44,123.54,256.45,152.24,256.45,187.63Z"/>
<path class="cls-1" d="M256.45,64.09h-195c0-17.7,6-33.72,15.71-45.32S100.25,0,115.06,0h87.75C232.44,0,256.45,28.7,256.45,64.09Z"/>
<path class="cls-1" d="M316.9,132.86V185.3c0,35.4-24,64.1-53.63,64.1V68.76c14.81,0,28.22,7.17,37.92,18.77S316.9,115.15,316.9,132.86Z"/>
<path class="cls-1" d="M61.43,252.91h195c0,17.7-6,33.72-15.71,45.32S217.63,317,202.82,317H115.06C85.44,317,61.43,288.3,61.43,252.91Z"/>
</g>
</g>
</svg>